HIERARCHY
ROOT hip
{
	OFFSET 0.000000 0.000000 0.000000 
	CHANNELS 6 Xposition Yposition Zposition Xrotation Zrotation Yrotation
	JOINT abdomen
	{
		OFFSET 0.000000 3.402643 0.000000 
		CHANNELS 3 Xrotation Zrotation Yrotation
		JOINT chest
		{
			OFFSET 0.000000 8.438565 -0.680529 
			CHANNELS 3 Xrotation Zrotation Yrotation
			JOINT neck
			{
				OFFSET 0.000000 10.207942 -0.272212 
				CHANNELS 3 Xrotation Zrotation Yrotation
				JOINT head
				{
					OFFSET 0.000000 3.130431 0.000000 
					CHANNELS 3 Xrotation Zrotation Yrotation
					End Site
					{
						OFFSET 0.000000 3.130435 0.000000 
					}
				}
			}
			JOINT lCollar
			{
				OFFSET 3.470700 6.669187 -0.816635 
				CHANNELS 3 Yrotation Zrotation Xrotation
				JOINT lShldr
				{
					OFFSET 3.198488 0.000000 0.000000 
					CHANNELS 3 Zrotation Yrotation Xrotation
					JOINT lForeArm
					{
						OFFSET 10.139888 0.000000 0.000000 
						CHANNELS 3 Yrotation Zrotation Xrotation
						JOINT lHand
						{
							OFFSET 8.370511 0.000000 0.000000 
							CHANNELS 3 Zrotation Yrotation Xrotation
							End Site
							{
								OFFSET 4.083176 0.000000 0.000000 
							}
						}
					}
				}
			}
			JOINT rCollar
			{
				OFFSET -3.470700 6.669187 -0.816635 
				CHANNELS 3 Yrotation Zrotation Xrotation
				JOINT rShldr
				{
					OFFSET -3.198488 0.000000 0.000000 
					CHANNELS 3 Zrotation Yrotation Xrotation
					JOINT rForeArm
					{
						OFFSET -10.139888 0.000000 0.000000 
						CHANNELS 3 Yrotation Zrotation Xrotation
						JOINT rHand
						{
							OFFSET -8.370511 0.000000 0.000000 
							CHANNELS 3 Zrotation Yrotation Xrotation
							End Site
							{
								OFFSET -4.083176 0.000000 0.000000 
							}
						}
					}
				}
			}
		}
	}
	JOINT lThigh
	{
		OFFSET 5.308129 -1.633274 1.361059 
		CHANNELS 3 Xrotation Zrotation Yrotation
		JOINT lShin
		{
			OFFSET -2.041588 -20.007561 0.000000 
			CHANNELS 3 Xrotation Zrotation Yrotation
			JOINT lFoot
			{
				OFFSET 0.000000 -19.190928 -1.224953 
				CHANNELS 3 Xrotation Yrotation Zrotation
				End Site
				{
					OFFSET 0.000000 -2.449906 4.627600 
				}
			}
		}
	}
	JOINT rThigh
	{
		OFFSET -5.308129 -1.633274 1.361059 
		CHANNELS 3 Xrotation Zrotation Yrotation
		JOINT rShin
		{
			OFFSET 2.041588 -20.007561 0.000000 
			CHANNELS 3 Xrotation Zrotation Yrotation
			JOINT rFoot
			{
				OFFSET 0.000000 -19.190928 -1.224953 
				CHANNELS 3 Xrotation Yrotation Zrotation
				End Site
				{
					OFFSET 0.000000 -2.449906 4.627600 
				}
			}
		}
	}
}
MOTION
Frames: 13
Frame Time: 0.033333
-4.843353 48.764050 -257.526917 -175.780716 -175.997177 1.930857 20.621315 -0.036102 -1.140477 -20.839844 0.000000 0.000000 10.298292 -0.727762 0.842418 -2.520832 -1.255077 0.218355 -4.754609 -0.109184 -0.002653 -48.648468 -21.667109 -1.455868 -126.694572 -0.190912 -5.690382 8.737572 8.844837 0.510575 4.754609 0.109184 -0.002672 101.791611 -55.227730 -36.425224 61.023422 -0.557656 24.538900 20.965712 14.097528 2.409696 11.052608 3.788915 11.295306 60.772392 -1.496007 3.022260 11.258904 0.199586 2.319263 -24.015272 -6.950317 -4.662662 1.716140 3.694448 -3.928020 15.113969 -0.083995 -0.964393 
-4.641304 48.675701 -267.932800 -175.372528 -176.563934 3.139935 20.830013 -0.322170 -0.498721 -20.839844 0.000000 0.000000 10.151155 0.282103 -1.204236 -2.520832 -1.255077 0.218355 -4.754609 -0.109184 -0.002653 -55.300560 -10.443989 13.053979 -106.254326 -0.246179 -6.406802 5.830617 6.344911 0.262360 4.754609 0.109184 -0.002672 91.945580 -49.803143 -18.639692 71.031380 -0.318018 15.855936 19.182922 8.945212 1.300680 -3.787494 8.354047 9.981233 86.333992 0.176503 2.320512 6.099678 0.123572 6.273499 -12.971928 -4.556373 -12.622022 -2.555145 3.998420 1.128427 16.668533 -0.269498 -2.453857 
-4.457519 48.250256 -278.087891 -175.377441 -177.800140 4.372714 20.879429 -0.523068 0.166211 -20.839844 0.000000 0.000000 10.096125 1.526668 -2.653398 -2.520832 -1.255077 0.218355 -4.754609 -0.109184 -0.002653 -60.333382 0.858449 20.355097 -67.894905 -0.344375 -5.989782 2.329409 -4.529629 0.021080 4.754609 0.109184 -0.002672 79.535706 -38.077339 0.295607 81.846352 -0.010877 5.366945 13.125488 4.816670 0.385466 -23.170948 11.218946 5.335288 103.006447 1.208611 -0.066774 2.603403 -0.241945 11.726156 -2.790779 -1.998902 -15.226173 0.837468 4.073877 3.569965 10.860983 -0.199422 -2.101063 
-4.700195 48.043621 -288.515137 -175.720337 -178.110748 3.266604 20.789589 -0.683916 0.753571 -20.839844 0.000000 0.000000 9.664538 1.300688 -1.906575 -2.520832 -1.255077 0.218355 -4.754609 -0.109184 -0.002653 -64.675110 12.911867 21.297647 -41.958412 -0.352633 -2.139944 2.291975 -10.155440 -0.182525 4.754609 0.109184 -0.002672 65.720146 -21.573177 15.930105 94.599754 0.324328 -6.047013 0.868644 4.145900 0.017279 -41.209091 9.599359 2.495981 104.742256 1.345356 -0.784148 -0.349917 -0.662325 14.369221 8.752332 -1.552588 -12.592807 2.224129 4.075883 3.749179 8.445582 -0.004016 1.614238 
-5.202796 48.514767 -299.091156 -175.728149 -177.438766 -0.035246 20.736904 -0.783749 1.290410 -20.839844 0.000000 0.000000 8.765024 -0.128226 0.545904 -2.520832 -1.255077 0.218355 -4.754609 -0.109184 -0.002653 -68.462357 27.601206 17.924704 -32.089081 -0.340357 0.368772 0.522676 -12.054491 -0.285459 4.754609 0.109184 -0.002672 51.797451 -3.579077 25.715773 109.547302 0.477964 -12.052406 -17.128189 9.314213 -1.110281 -49.892365 7.002390 3.009992 90.255577 0.498313 0.893371 -4.136707 -0.949863 12.526219 21.904665 -3.749919 -10.536267 -3.714952 4.238332 4.459886 21.944813 0.460462 3.289912 
-5.682048 49.182354 -309.391449 -174.769073 -177.189468 -3.069872 20.839586 -0.756026 1.739397 -20.839844 0.000000 0.000000 8.486117 -1.130043 2.927735 -2.520832 -1.255077 0.218355 -4.754609 -0.109184 -0.002653 -71.085518 43.497498 14.946692 -33.717850 -0.330686 0.732174 -2.428779 -12.983284 -0.012870 4.754609 0.109184 -0.002672 40.469620 12.433310 29.732428 123.020874 0.188831 -3.073944 -34.994190 8.773295 -2.256045 -47.300388 5.516787 3.401078 62.386246 -1.294000 2.041051 -1.716699 -0.369054 7.069356 22.543325 -8.212230 -10.844748 11.930492 4.294066 6.766072 32.047688 -0.268065 -1.557448 
-6.130840 49.384930 -319.624756 -172.956085 -178.362061 -4.245525 21.081394 -0.538954 1.937799 -20.839844 0.000000 0.000000 9.829851 -0.809240 4.325762 -2.520832 -1.255077 0.218355 -4.754609 -0.109184 -0.002653 -69.932152 55.831184 15.171829 -39.927639 -0.321113 0.804689 -4.453142 -13.091012 0.263435 4.754609 0.109184 -0.002672 36.374687 20.860615 34.075245 130.481888 -0.329265 13.287846 -41.309059 -1.061818 0.817105 -32.213482 5.126573 3.217545 20.176876 -3.313010 3.371334 14.003488 -0.092942 -0.052716 14.461345 -10.174979 -4.412757 41.740814 2.614964 -0.073637 29.754845 -1.069564 -4.901333 
-6.580133 48.837658 -329.913361 -171.093628 179.710571 -4.319829 21.298693 -0.123526 1.807051 -20.839844 0.000000 0.000000 11.807334 0.329418 5.374118 -2.520832 -1.255077 0.218355 -4.754609 -0.109184 -0.002653 -63.323456 60.179192 20.185776 -45.541771 -0.298910 1.621583 -4.948944 -12.687698 0.336985 4.754609 0.109184 -0.002672 42.048515 13.411053 45.897087 128.204926 -0.617964 22.927465 -38.002186 -1.623910 0.963195 -22.595467 5.878294 7.182459 0.456270 -3.985734 0.878086 24.274311 -0.931325 -4.573270 6.610654 -12.460242 -4.988146 67.214546 1.081553 -2.986087 22.800625 -1.398884 -7.835331 
-6.888292 47.797401 -339.994385 -170.073593 178.278107 -4.327461 21.372299 0.260378 1.402233 -20.839844 0.000000 0.000000 12.888245 1.479867 6.343727 -2.520832 -1.255077 0.218355 -4.754609 -0.109184 -0.002653 -55.905586 55.225372 26.707998 -49.890259 -0.285318 1.977382 -3.869330 -12.055122 0.264652 4.754609 0.109184 -0.002672 53.393490 -7.882216 47.963875 113.974236 -0.462776 18.102133 -25.870546 8.082954 -1.399094 -16.124680 6.107747 12.159852 -3.845755 -4.360251 -5.225412 28.177732 -0.963770 -4.422930 -4.803159 -15.157769 -5.481254 86.624718 -0.147187 -4.201875 14.532759 -1.116008 -9.967512 
-6.849207 46.663227 -349.891052 -169.944611 177.942230 -3.424139 21.288750 0.436772 0.746617 -20.839844 0.000000 0.000000 13.315964 2.494748 5.986375 -2.520832 -1.255077 0.218355 -4.754609 -0.109184 -0.002653 -51.908428 42.950760 30.051655 -54.980610 -0.279316 1.214221 -0.806902 -10.908775 0.072406 4.754609 0.109184 -0.002672 70.161354 -23.964998 28.778439 91.579620 -0.229848 11.947534 -10.090494 10.177597 -0.626215 -9.115254 5.823957 13.110823 -1.662246 -4.648884 -10.817563 24.222778 -0.249143 -1.457672 -19.823008 -16.678455 -6.741966 95.915161 -0.742299 -4.074529 8.265347 -0.671547 -11.357640 
-6.518198 46.077362 -359.776093 -169.868057 178.211899 -0.461619 21.152735 0.411256 -0.092112 -20.839844 0.000000 0.000000 14.267374 3.703779 3.506782 -2.520832 -1.255077 0.218355 -4.754609 -0.109184 -0.002653 -50.729599 27.216377 27.278624 -63.809452 -0.280789 -0.318183 2.984995 -8.216908 -0.073239 4.754609 0.109184 -0.002672 84.035934 -29.684814 3.865003 70.528145 -0.156954 10.973505 -3.131527 10.229774 -0.147124 -7.857184 6.889499 9.482278 18.600969 -4.671483 -12.650324 8.809084 -0.575836 3.616280 -32.235760 -15.790751 -9.333108 90.582077 -0.488671 -3.712083 3.910849 -0.172195 -9.542123 
-6.248622 46.265720 -369.502686 -168.900208 178.121719 3.288470 21.179419 0.229397 -0.822251 -20.839844 0.000000 0.000000 16.017231 5.060182 0.620590 -2.520832 -1.255077 0.218355 -4.754609 -0.109184 -0.002653 -50.903545 13.249278 18.074802 -82.277565 -0.272304 -3.834365 5.032599 -2.466560 0.054982 4.754609 0.109184 -0.002672 92.534462 -40.244823 -13.150665 66.334465 -0.096162 9.194625 0.420604 10.845689 0.124203 -4.246916 8.512392 7.771739 35.119038 -3.855661 -13.613109 4.501042 -0.849933 5.622660 -35.463776 -12.292674 -10.173582 70.426262 0.741283 -3.226080 1.632878 -0.172217 -2.753002 
-6.221210 46.591145 -378.944519 -166.982437 177.802048 5.478710 21.451096 0.043701 -1.157922 -20.839844 0.000000 0.000000 18.089483 5.659148 -0.539229 -2.520832 -1.255077 0.218355 -4.754609 -0.109184 -0.002653 -52.631645 5.398992 10.508265 -108.828773 -0.224261 -5.583359 6.836240 4.185734 0.269126 4.754609 0.109184 -0.002672 103.369446 -58.238060 -24.136595 77.496605 -0.120203 9.261637 4.805053 12.255056 0.606342 -1.503902 10.716082 7.202135 48.185631 -3.136254 -12.471700 14.368988 -0.096652 5.209743 -27.982214 -7.507623 -7.327023 37.359291 2.440824 -4.566981 8.711746 -0.173063 4.831676 
